<?xml version="1.0" encoding="UTF-8" standalone="no"?>
<!DOCTYPE svg PUBLIC "-//W3C//DTD SVG 1.1//EN" "http://www.w3.org/Graphics/SVG/1.1/DTD/svg11.dtd">
<svg width="1120.00" height="1120.00" viewBox="0.00 0.00 1120.00 1120.00" xmlns="http://www.w3.org/2000/svg" xmlns:xlink="http://www.w3.org/1999/xlink">
<g stroke-linecap="round" transform="translate(-426.00, -761.00)" id="レイヤー_1">
<path d="M472.61,1391.16 C468.56,1381.73 455.14,1350.73 452.41,1341.96 C449.71,1333.23 445.39,1312.92 444.13,1303.00 C442.96,1293.71 441.96,1260.08 442.44,1243.93 C443.49,1223.52 446.48,1193.51 449.07,1177.32 C452.58,1157.67 458.61,1133.95 464.69,1116.05 C467.32,1108.80 472.99,1094.55 476.04,1087.53 C482.17,1074.20 497.26,1046.29 505.79,1032.33 C514.80,1018.27 529.47,996.93 542.78,979.66 C552.46,967.59 573.17,943.09 584.21,930.68 C597.99,915.74 618.76,895.21 630.47,884.90 C636.35,879.90 648.16,870.41 654.09,865.90 C660.35,861.30 675.20,851.63 682.84,847.02 C690.51,842.65 705.97,834.63 713.75,830.98 C721.58,827.57 737.34,821.46 745.08,818.72 C762.87,812.84 787.09,806.07 799.02,803.61 C806.90,802.03 828.18,800.39 836.84,800.90 C842.91,801.28 859.63,804.37 866.29,804.82 C872.85,805.24 887.28,803.87 890.78,802.91 C897.02,801.15 907.74,793.60 914.54,791.04 C923.05,787.90 937.15,785.09 946.53,783.77 C956.76,782.53 991.17,780.05 1008.83,779.33 C1026.20,778.98 1065.93,779.47 1076.47,780.23 C1093.08,781.60 1125.50,785.94 1140.94,788.87 C1148.66,790.50 1163.86,794.17 1171.33,796.22 C1178.71,798.42 1196.37,804.31 1200.46,806.01 C1207.72,809.13 1222.02,815.88 1229.05,819.51 C1236.01,823.33 1249.71,831.47 1256.43,835.81 C1263.06,840.30 1276.00,849.74 1282.31,854.70 C1288.52,859.81 1303.23,872.87 1306.10,875.88 C1311.12,881.24 1320.94,892.38 1325.76,898.18 C1330.50,904.13 1339.80,916.46 1344.34,922.86 C1348.81,929.39 1357.45,942.86 1361.60,949.80 C1365.65,956.86 1373.43,971.38 1377.16,978.84 C1382.32,989.66 1386.49,1000.03 1389.10,1006.58 C1394.04,1020.09 1403.13,1048.29 1407.28,1062.99 C1411.26,1078.08 1417.89,1110.28 1420.75,1127.27 C1423.28,1144.86 1426.78,1177.25 1428.02,1192.75 C1428.97,1208.86 1430.47,1241.90 1431.02,1258.84 C1431.29,1279.97 1430.45,1309.84 1429.16,1325.59 C1428.39,1333.34 1426.50,1348.41 1425.37,1355.73 C1424.13,1362.93 1421.04,1378.51 1418.05,1389.19 C1415.17,1399.42 1408.26,1418.52 1404.23,1427.40 C1400.19,1436.26 1393.12,1448.82 1386.13,1459.95 C1377.92,1472.79 1362.74,1495.13 1362.00,1494.77 C1360.98,1494.20 1360.96,1491.13 1361.96,1488.81 C1367.45,1475.63 1372.89,1460.33 1375.92,1448.50 C1377.57,1442.02 1381.82,1418.87 1383.29,1408.89 C1386.42,1383.90 1387.15,1365.24 1386.67,1362.68 C1386.43,1361.48 1385.50,1360.78 1384.85,1361.50 C1382.44,1364.31 1368.30,1408.99 1362.08,1424.06 C1358.20,1433.27 1350.18,1448.64 1346.07,1454.58 C1344.15,1457.34 1332.88,1471.53 1328.02,1477.30 C1322.57,1483.60 1310.12,1497.08 1303.47,1503.81 C1295.33,1511.72 1286.75,1519.29 1285.91,1518.97 C1285.26,1518.65 1285.70,1516.80 1286.86,1514.72 C1290.30,1508.52 1296.04,1491.01 1299.34,1479.41 C1301.81,1469.88 1307.43,1447.07 1308.34,1442.38 C1309.63,1435.69 1309.53,1431.44 1308.96,1431.30 C1308.34,1431.22 1305.70,1434.84 1303.78,1438.42 C1302.54,1440.76 1289.87,1465.60 1285.34,1472.87 C1280.46,1480.67 1272.15,1490.92 1267.10,1495.23 C1261.66,1499.84 1247.75,1509.15 1239.89,1513.62 C1226.72,1520.94 1203.18,1532.04 1203.02,1531.31 C1202.86,1529.94 1211.09,1522.84 1212.27,1521.75 C1219.28,1515.13 1228.23,1501.83 1232.18,1494.37 C1234.63,1489.66 1241.34,1475.13 1244.38,1467.88 C1247.37,1460.45 1252.63,1444.07 1254.98,1435.34 C1258.79,1419.85 1263.57,1390.89 1265.19,1375.83 C1266.82,1356.87 1267.98,1327.64 1267.79,1310.52 C1267.22,1293.06 1265.07,1262.43 1263.52,1247.03 C1261.63,1231.31 1256.87,1199.04 1253.93,1182.92 C1250.62,1166.96 1241.81,1131.49 1237.97,1118.79 C1232.30,1100.97 1220.54,1069.45 1211.76,1048.74 C1201.03,1024.09 1189.89,998.51 1189.49,997.58" fill="none" stroke="rgb(16, 53, 78)" stroke-width="14.63" stroke-opacity="1.00" stroke-linejoin="miter"/>
<path d="M474.07,1392.16 C472.77,1380.89 469.00,1348.00 468.13,1334.21 C467.78,1324.78 467.78,1303.86 468.16,1295.83 C468.80,1286.07 470.80,1266.23 472.16,1256.15 C474.23,1242.93 476.75,1230.48 478.11,1226.69 C478.79,1224.84 480.10,1222.90 480.69,1222.88 C481.33,1222.91 482.62,1224.88 483.23,1226.75 C485.24,1233.10 490.19,1277.01 493.17,1297.05 C496.30,1314.94 502.88,1345.97 506.65,1360.93 C508.65,1368.31 513.76,1383.10 516.73,1390.47 C519.82,1397.83 528.88,1416.39 532.05,1422.09 C536.33,1429.76 548.34,1448.45 554.63,1457.18 C561.91,1466.97 570.98,1477.48 574.00,1479.60 C575.49,1480.62 577.60,1480.93 578.15,1480.22 C578.81,1479.26 578.94,1475.16 578.42,1471.98 C577.32,1465.51 572.82,1451.27 565.58,1430.19 C561.73,1418.35 558.89,1406.88 559.13,1404.17 C559.24,1403.33 560.18,1403.00 561.20,1403.45 C563.01,1404.32 570.38,1415.21 580.02,1430.70 C585.74,1439.58 598.86,1458.75 602.73,1463.25 C606.68,1467.80 613.84,1474.34 616.92,1476.21 C618.47,1477.11 621.07,1478.07 622.16,1478.13 C623.21,1478.15 624.90,1477.33 625.47,1476.51 C626.67,1474.66 626.81,1464.17 626.41,1458.34 C625.37,1445.92 620.40,1411.53 619.77,1392.39 C619.65,1382.66 620.24,1362.53 620.84,1353.22 C621.52,1344.83 623.42,1327.66 624.62,1318.88 C627.38,1301.06 635.17,1264.81 639.15,1247.17 C642.15,1234.04 646.48,1215.08 647.81,1209.26" fill="none" stroke="rgb(16, 53, 78)" stroke-width="14.63" stroke-opacity="1.00" stroke-linejoin="miter"/>
<path d="M661.51,1067.78 C659.36,1080.57 654.17,1111.86 651.13,1130.36 C648.26,1149.99 645.34,1178.29 645.71,1186.66 C646.27,1198.84 651.52,1235.15 653.82,1249.94 C656.97,1267.78 663.00,1301.28 665.88,1316.93 C667.08,1323.28 669.36,1335.72 673.33,1348.78 C675.11,1354.59 677.40,1359.88 678.28,1359.73 C679.00,1359.52 679.70,1355.22 680.02,1353.27 C681.05,1345.75 684.41,1305.95 685.70,1294.63 C687.05,1285.13 690.59,1265.65 692.79,1255.66 C697.25,1237.37 706.33,1207.66 713.39,1187.78 C721.55,1166.62 752.56,1093.70 763.82,1069.04 C765.14,1066.07 767.37,1061.05 768.28,1059.01" fill="none" stroke="rgb(16, 53, 78)" stroke-width="14.63" stroke-opacity="1.00" stroke-linejoin="miter"/>
<path d="M815.08,898.13 C812.40,902.55 805.61,913.78 801.48,920.57 C796.91,928.33 788.68,946.45 786.19,954.00 C784.07,960.57 780.35,974.60 778.70,981.94 C776.44,993.23 770.11,1036.25 769.05,1046.93 C767.81,1061.24 765.59,1096.23 765.21,1107.55 C764.95,1123.75 766.34,1156.93 767.90,1172.90 C769.72,1188.45 775.36,1224.40 777.82,1236.36 C779.65,1244.24 784.31,1261.02 786.26,1266.91 C788.78,1274.19 795.22,1289.96 798.24,1296.00 C802.66,1304.79 812.86,1321.31 818.61,1328.99 C823.52,1335.52 836.56,1350.19 841.62,1355.64 C847.35,1361.55 852.68,1366.47 854.57,1367.60 C855.56,1368.17 856.72,1367.82 856.96,1366.77 C857.30,1365.04 846.87,1345.22 843.16,1336.96 C838.29,1326.07 831.95,1307.62 829.03,1297.51 C825.45,1284.38 822.64,1269.82 823.64,1268.14 C824.12,1267.44 826.05,1268.62 827.16,1269.89 C829.33,1272.42 835.04,1281.69 840.80,1292.02 C847.11,1303.74 856.44,1318.42 862.44,1325.91 C868.58,1333.53 881.21,1345.77 888.24,1350.97 C895.11,1356.01 908.73,1363.42 917.77,1367.05 C924.99,1370.02 938.65,1375.77 944.60,1378.44 C956.49,1383.97 972.56,1392.03 973.93,1392.44 C975.29,1392.80 977.75,1392.41 978.68,1391.66 C979.86,1390.65 980.47,1389.23 980.53,1387.66 C980.53,1387.43 981.65,1356.55 981.60,1342.67 C981.22,1326.17 980.08,1291.41 979.32,1273.14 C978.19,1254.17 975.59,1215.90 974.12,1196.58 C972.48,1179.14 968.97,1143.77 967.09,1125.83 C962.74,1089.17 955.00,1025.05 951.61,997.58 C951.01,992.68 950.02,984.64 949.63,981.49" fill="none" stroke="rgb(16, 53, 78)" stroke-width="14.63" stroke-opacity="1.00" stroke-linejoin="miter"/>
<path d="M958.41,1070.71 C975.85,1090.54 1017.74,1138.61 1041.77,1167.23 C1052.87,1180.61 1074.86,1207.43 1085.75,1220.88 C1095.76,1233.60 1114.27,1257.56 1121.77,1267.80 C1132.40,1282.75 1143.65,1302.15 1145.21,1303.40 C1145.97,1303.96 1147.24,1304.00 1147.71,1303.47 C1148.61,1302.35 1148.64,1298.29 1148.66,1296.39 C1148.56,1290.02 1145.78,1257.29 1143.71,1239.06 C1141.29,1220.41 1135.38,1181.86 1132.44,1165.53 C1129.19,1148.83 1122.28,1114.99 1118.61,1097.84 C1114.98,1082.25 1107.97,1053.18 1104.75,1041.11 C1102.16,1031.82 1095.75,1012.83 1092.45,1005.87 C1091.60,1004.08 1084.63,990.94 1082.72,987.34" fill="none" stroke="rgb(16, 53, 78)" stroke-width="14.63" stroke-opacity="1.00" stroke-linejoin="miter"/>
<path d="M1116.36,1088.26 C1123.50,1096.00 1141.34,1115.35 1152.04,1126.96 C1167.34,1143.83 1188.41,1169.22 1198.99,1183.49 C1204.12,1190.64 1214.77,1206.38 1219.79,1214.28 C1224.61,1222.20 1233.65,1238.10 1237.87,1246.08 C1249.82,1270.14 1262.19,1295.07 1262.62,1295.94" fill="none" stroke="rgb(16, 53, 78)" stroke-width="14.63" stroke-opacity="1.00" stroke-linejoin="miter"/>
<path d="M636.65,1322.26 C636.78,1334.95 637.16,1367.44 638.31,1384.16 C639.11,1392.69 641.51,1411.71 642.90,1419.10 C644.22,1426.05 648.37,1443.01 649.26,1449.32 C650.16,1455.93 649.67,1465.72 648.56,1468.79 C647.89,1470.59 646.29,1472.84 644.90,1474.08 C641.26,1477.25 637.77,1481.03 635.42,1484.30 C632.27,1488.75 625.40,1503.23 623.31,1510.32 C622.20,1514.18 620.49,1522.54 620.22,1526.03 C619.68,1533.30 620.44,1548.20 621.73,1556.28 C622.96,1563.83 626.62,1577.47 629.99,1584.85 C632.79,1590.95 640.34,1603.86 644.51,1609.08 C649.52,1615.29 661.87,1627.05 668.56,1632.36 C678.70,1640.13 708.42,1659.84 718.07,1665.00 C725.53,1668.96 741.66,1676.05 750.32,1679.17 C759.97,1682.63 771.91,1686.00 783.27,1688.65 C791.07,1690.30 807.25,1693.22 815.64,1694.50 C834.01,1696.95 921.71,1704.08 943.66,1705.43 C949.42,1705.74 959.40,1706.23 965.43,1705.38 C978.74,1703.47 1011.75,1694.70 1024.51,1691.21 C1040.16,1686.72 1073.45,1676.92 1091.09,1671.61 C1107.80,1666.20 1138.72,1655.34 1152.93,1649.88 C1163.19,1645.59 1182.30,1637.00 1191.14,1632.69 C1205.07,1625.51 1245.35,1601.70 1247.99,1600.15" fill="none" stroke="rgb(16, 53, 78)" stroke-width="14.63" stroke-opacity="1.00" stroke-linejoin="miter"/>
<path d="M1264.08,1496.31 C1262.53,1506.57 1258.58,1532.88 1256.17,1548.93 C1253.69,1567.32 1249.06,1603.78 1247.56,1618.50 C1244.98,1649.50 1239.91,1713.60 1237.42,1746.68 C1236.09,1765.56 1233.44,1803.63 1232.12,1822.82 C1231.64,1831.93 1232.21,1846.84 1233.24,1852.44 C1233.76,1855.21 1235.19,1859.87 1236.08,1861.75 C1236.93,1863.48 1239.27,1866.58 1240.91,1867.59 C1242.66,1868.63 1246.93,1869.15 1249.37,1868.63 C1251.83,1868.06 1257.42,1865.36 1260.54,1863.22 C1265.94,1859.48 1281.31,1844.81 1288.04,1837.98 C1294.49,1831.10 1308.64,1814.74 1312.20,1810.09 C1317.56,1802.92 1327.43,1788.59 1331.94,1781.44 C1336.86,1773.26 1356.79,1735.39 1360.38,1727.20 C1364.96,1716.69 1371.14,1698.87 1371.97,1699.91 C1372.56,1700.81 1371.98,1710.61 1370.87,1721.81 C1369.73,1731.66 1366.21,1754.00 1365.00,1759.57 C1362.64,1770.30 1355.08,1793.95 1354.44,1796.57 C1353.73,1799.59 1353.88,1803.07 1354.76,1803.44 C1355.36,1803.64 1358.03,1802.01 1359.81,1800.34 C1363.90,1796.46 1374.58,1782.95 1380.11,1773.56 C1385.96,1763.57 1392.31,1749.43 1394.93,1743.29 C1399.12,1733.00 1410.67,1700.41 1415.70,1684.50 C1420.41,1668.37 1428.72,1636.11 1431.94,1621.93 C1434.92,1607.62 1440.19,1578.60 1442.48,1563.78 C1444.55,1548.10 1448.06,1513.84 1449.50,1495.26 C1450.43,1478.45 1451.98,1443.92 1452.60,1426.19 C1453.15,1389.37 1453.95,1330.09 1454.21,1307.64" fill="none" stroke="rgb(16, 53, 78)" stroke-width="14.63" stroke-opacity="1.00" stroke-linejoin="miter"/>
<path d="M570.83,1483.14 C570.66,1493.27 570.20,1519.11 569.93,1534.82 C569.87,1552.90 570.71,1589.47 571.32,1607.37 C572.22,1623.31 574.38,1655.88 575.64,1672.51 C577.23,1689.15 582.01,1719.77 585.21,1733.75 C587.66,1743.72 593.35,1762.08 597.28,1771.62 C601.26,1781.23 608.15,1793.86 614.55,1804.39 C618.70,1810.92 623.73,1817.54 624.95,1818.07 C625.51,1818.28 626.27,1818.05 626.49,1817.50 C627.26,1815.22 622.42,1796.92 619.70,1787.02 C615.72,1771.43 613.44,1761.12 610.56,1745.10 C609.72,1739.81 607.99,1728.45 607.75,1725.19 C607.50,1721.50 608.23,1717.82 609.18,1717.98 C610.71,1718.34 615.78,1725.83 619.20,1732.40 C622.89,1739.77 631.45,1757.70 636.48,1766.31 C641.47,1774.81 652.30,1790.02 657.96,1796.66 C663.30,1802.88 674.82,1814.16 681.01,1819.22 C684.64,1822.18 699.97,1833.21 706.19,1837.42 C712.33,1841.43 726.78,1850.26 733.80,1853.81 C743.09,1858.49 762.00,1865.63 768.26,1866.66 C771.60,1867.18 776.68,1866.82 778.45,1865.94 C780.12,1865.06 781.82,1861.83 781.98,1859.71 C782.11,1857.52 780.98,1851.84 779.77,1848.59 C773.72,1832.51 770.67,1822.81 768.11,1811.09 C764.47,1793.68 759.47,1759.99 757.27,1740.75 C755.56,1724.49 753.02,1700.26 752.19,1692.29" fill="none" stroke="rgb(16, 53, 78)" stroke-width="14.63" stroke-opacity="1.00" stroke-linejoin="miter"/>
<path d="M1353.30,930.30 C1359.26,938.82 1373.80,959.61 1382.39,971.87 C1393.11,987.32 1414.09,1018.36 1423.71,1033.65 C1428.20,1041.16 1436.87,1056.03 1441.05,1063.39 C1445.42,1071.60 1453.57,1087.79 1457.36,1095.78 C1460.94,1103.70 1467.53,1119.31 1470.54,1127.02 C1475.78,1141.86 1485.45,1170.29 1489.87,1183.87 C1493.70,1196.49 1503.09,1231.62 1505.48,1242.79 C1508.10,1256.27 1512.26,1288.98 1513.18,1303.22 C1513.99,1318.51 1514.95,1352.26 1515.30,1369.74 C1515.77,1385.02 1517.46,1423.34 1518.25,1431.42 C1519.21,1441.08 1526.13,1472.68 1528.02,1484.18 C1529.14,1491.46 1531.40,1506.70 1532.42,1514.88 C1534.51,1535.16 1534.87,1561.96 1534.29,1576.75 C1533.43,1592.58 1529.67,1624.72 1526.70,1641.71 C1523.90,1656.20 1517.01,1686.85 1512.93,1702.91 C1508.52,1718.88 1497.65,1751.45 1490.80,1768.05 C1486.69,1777.46 1477.91,1795.95 1473.25,1805.02 C1462.78,1824.53 1456.50,1833.90 1455.67,1834.16 C1454.67,1834.38 1456.21,1826.98 1458.75,1819.46 C1463.98,1804.56 1468.13,1791.59 1470.55,1781.53 C1472.64,1772.77 1476.11,1752.12 1477.16,1743.06 C1478.03,1733.94 1479.01,1715.41 1479.13,1706.00 C1479.12,1690.80 1479.09,1670.78 1479.07,1665.96" fill="none" stroke="rgb(16, 53, 78)" stroke-width="14.63" stroke-opacity="1.00" stroke-linejoin="miter"/>
<path d="M1479.07,1594.30 C1479.21,1598.95 1479.57,1610.56 1479.79,1617.51 C1480.08,1627.19 1479.35,1644.03 1478.23,1653.70 C1477.14,1662.03 1474.83,1675.96 1473.42,1683.16 C1471.83,1690.53 1468.14,1705.76 1466.03,1713.55 C1463.73,1721.42 1458.60,1737.41 1455.77,1745.52 C1452.75,1753.72 1445.87,1770.82 1442.14,1779.48 C1438.21,1788.21 1429.83,1805.60 1425.58,1814.18 C1417.15,1830.21 1412.77,1836.07 1411.80,1837.08 C1410.97,1837.90 1409.78,1837.88 1409.24,1836.92 C1408.43,1835.32 1412.69,1814.48 1414.26,1804.33 C1415.96,1792.19 1417.32,1773.91 1417.57,1763.88 C1417.68,1751.75 1416.87,1736.55 1415.87,1734.15 C1415.40,1733.10 1414.13,1733.42 1413.48,1734.66 C1412.08,1737.40 1406.76,1759.78 1405.53,1764.14 C1402.68,1774.15 1394.74,1792.85 1389.83,1801.44 C1385.16,1809.56 1374.05,1824.75 1367.48,1832.05 C1364.51,1835.34 1359.41,1840.35 1357.26,1842.09 C1355.13,1843.80 1351.62,1845.71 1350.37,1845.86 C1349.30,1845.94 1347.93,1845.47 1347.39,1844.71 C1346.39,1843.20 1346.22,1837.04 1347.04,1831.65 C1348.84,1820.35 1350.67,1802.04 1350.79,1793.18 C1350.87,1785.63 1349.42,1769.56 1348.91,1763.95" fill="none" stroke="rgb(16, 53, 78)" stroke-width="14.63" stroke-opacity="1.00" stroke-linejoin="miter"/>
<path d="M525.49,1418.79 C526.67,1430.10 529.64,1458.82 531.45,1476.23 C533.19,1495.13 535.43,1529.42 536.00,1546.79 C536.10,1555.89 535.84,1572.79 535.48,1580.58 C534.32,1594.98 531.94,1624.06 530.74,1638.75 C529.56,1654.60 527.19,1687.97 527.50,1702.47 C527.85,1710.53 529.20,1726.53 530.22,1734.50 C531.47,1742.54 534.66,1758.81 536.59,1766.97 C539.01,1776.24 543.13,1789.64 545.11,1794.82 C546.87,1799.26 549.91,1805.97 552.31,1810.11 C554.84,1814.43 559.49,1820.33 562.89,1823.60 C566.95,1827.52 571.65,1832.06 572.30,1832.69" fill="none" stroke="rgb(16, 53, 78)" stroke-width="14.63" stroke-opacity="1.00" stroke-linejoin="miter"/>
<path d="M553.28,1684.98 C555.87,1696.65 563.88,1733.00 566.64,1744.15 C569.01,1752.88 574.04,1769.15 576.76,1776.48 C580.12,1785.31 587.83,1801.12 592.15,1807.76 C596.08,1813.74 605.93,1825.04 611.12,1829.77 C616.45,1834.59 629.37,1843.72 637.20,1847.67 C644.18,1851.16 671.22,1860.71 674.67,1861.94" fill="none" stroke="rgb(16, 53, 78)" stroke-width="14.63" stroke-opacity="1.00" stroke-linejoin="miter"/>
<path d="M573.76,1829.77 C571.36,1814.74 565.03,1773.24 564.42,1765.02 C564.02,1759.63 564.90,1751.50 564.98,1750.79" fill="none" stroke="rgb(16, 53, 78)" stroke-width="14.63" stroke-opacity="1.00" stroke-linejoin="miter"/>
<path d="M674.67,1861.94 C674.67,1861.94 664.44,1809.29 664.44,1809.29" fill="none" stroke="rgb(16, 53, 78)" stroke-width="14.63" stroke-opacity="1.00" stroke-linejoin="miter"/>
<path d="M760.27,1756.41 C763.36,1760.93 771.28,1772.48 776.11,1779.51 C782.25,1787.93 792.51,1800.91 799.33,1807.78 C803.23,1811.66 809.27,1816.71 811.54,1817.75 C812.63,1818.21 814.42,1818.39 815.08,1818.07 C815.83,1817.64 816.74,1815.97 816.92,1814.56 C817.14,1812.61 813.29,1785.42 812.79,1777.54 C812.07,1765.67 812.94,1757.50 813.62,1756.64 C814.02,1756.21 814.96,1756.52 815.58,1757.35 C816.27,1758.29 818.73,1763.16 818.75,1763.20 C821.12,1766.98 829.69,1773.45 834.10,1775.94 C844.75,1781.81 875.91,1792.83 885.28,1796.13" fill="none" stroke="rgb(16, 53, 78)" stroke-width="14.63" stroke-opacity="1.00" stroke-linejoin="miter"/>
<path d="M954.02,1706.91 C956.26,1712.34 962.67,1727.87 964.21,1734.04 C965.21,1738.16 966.28,1746.48 966.27,1750.65 C966.21,1756.08 963.50,1770.44 962.80,1774.19" fill="none" stroke="rgb(16, 53, 78)" stroke-width="14.63" stroke-opacity="1.00" stroke-linejoin="miter"/>
<path d="M1100.28,1679.13 C1098.46,1684.56 1092.48,1702.42 1091.20,1706.77 C1085.35,1726.67 1084.54,1743.47 1084.19,1758.10" fill="none" stroke="rgb(16, 53, 78)" stroke-width="14.63" stroke-opacity="1.00" stroke-linejoin="miter"/>
<path d="M679.06,1463.16 C679.06,1463.16 664.44,1488.02 664.44,1488.02" fill="none" stroke="rgb(16, 53, 78)" stroke-width="9.75" stroke-opacity="1.00" stroke-linejoin="miter"/>
<path d="M703.93,1463.65 C703.93,1463.65 688.81,1487.53 688.81,1487.53" fill="none" stroke="rgb(16, 53, 78)" stroke-width="9.75" stroke-opacity="1.00" stroke-linejoin="miter"/>
<path d="M1148.05,1433.91 C1148.05,1433.91 1134.40,1455.85 1134.40,1455.85" fill="none" stroke="rgb(16, 53, 78)" stroke-width="9.75" stroke-opacity="1.00" stroke-linejoin="miter"/>
<path d="M1179.25,1424.64 C1179.25,1424.64 1166.58,1445.61 1166.58,1445.61" fill="none" stroke="rgb(16, 53, 78)" stroke-width="9.75" stroke-opacity="1.00" stroke-linejoin="miter"/>
<path d="M871.63,1580.65 C876.17,1582.28 879.05,1582.63 882.01,1581.45 C884.19,1580.52 898.03,1573.00 906.99,1569.06 C914.22,1566.02 929.81,1559.57 937.91,1556.97 C946.52,1554.24 962.78,1550.56 971.02,1549.34 C979.46,1548.11 995.75,1546.96 1002.59,1547.13 C1006.77,1547.26 1014.35,1548.07 1018.54,1549.10 C1022.86,1550.19 1028.58,1552.82 1032.62,1555.17 C1034.68,1556.38 1040.80,1560.40 1043.67,1563.24 C1046.70,1566.31 1050.08,1572.58 1050.55,1576.26 C1050.83,1578.78 1049.84,1587.65 1048.76,1591.43 C1047.56,1595.52 1044.21,1601.96 1041.68,1605.38 C1039.69,1608.04 1034.53,1613.57 1031.84,1616.16 C1026.93,1620.81 1019.49,1624.45 1018.37,1625.01" fill="none" stroke="rgb(16, 53, 78)" stroke-width="9.75" stroke-opacity="1.00" stroke-linejoin="miter"/>
<path d="M875.53,1591.86 C875.53,1591.86 875.53,1591.86 875.53,1591.86 Z" fill="none" stroke="rgb(16, 53, 78)" stroke-width="9.75" stroke-opacity="1.00" stroke-linejoin="miter"/>
<path d="M875.53,1591.86 C875.11,1597.74 875.18,1602.34 876.28,1606.35 C877.43,1610.37 880.27,1617.66 881.87,1620.63 C883.51,1623.62 888.17,1629.66 891.10,1631.78 C896.22,1635.40 912.19,1641.66 919.96,1643.73 C928.14,1645.84 938.85,1645.56 941.35,1645.49" fill="none" stroke="rgb(16, 53, 78)" stroke-width="9.75" stroke-opacity="1.00" stroke-linejoin="miter"/>
<path d="M901.86,1572.36 C899.97,1574.23 893.86,1580.26 892.38,1581.95 C889.74,1585.01 885.75,1591.89 884.60,1595.33 C882.73,1601.11 881.24,1613.03 881.38,1615.75" fill="none" stroke="rgb(16, 53, 78)" stroke-width="9.75" stroke-opacity="1.00" stroke-linejoin="miter"/>
<path d="M770.23,1165.77 C782.03,1163.65 811.42,1158.41 829.11,1155.71 C837.76,1154.58 855.56,1152.67 864.67,1151.93 C873.62,1151.37 892.69,1150.71 898.49,1151.04 C905.52,1151.45 914.37,1153.72 915.02,1154.07 C916.92,1155.17 919.50,1157.79 920.17,1159.56 C921.17,1162.38 919.61,1170.97 918.52,1174.48 C917.92,1176.27 916.50,1178.39 915.07,1179.55 C913.81,1180.51 911.60,1181.07 909.49,1181.09 C907.99,1181.09 889.04,1180.47 882.19,1180.22 C872.09,1179.82 857.25,1180.46 845.79,1181.86 C839.32,1182.73 820.17,1186.23 810.92,1188.30 C795.56,1192.07 777.89,1196.41 775.59,1196.97" fill="none" stroke="rgb(16, 53, 78)" stroke-width="14.63" stroke-opacity="1.00" stroke-linejoin="miter"/>
<path d="M778.03,1223.79 C790.31,1220.80 820.23,1213.74 839.46,1210.63 C880.38,1204.93 910.20,1205.55 910.23,1205.55 C912.07,1205.59 914.67,1206.45 916.31,1207.74 C917.59,1208.80 919.16,1211.62 920.24,1214.34 C921.24,1217.06 921.46,1218.81 921.17,1221.74 C920.80,1224.68 920.00,1227.77 919.04,1228.91 C917.92,1230.19 915.51,1231.31 913.86,1231.57 C907.15,1232.59 898.65,1233.15 887.28,1233.40 C879.06,1233.67 863.94,1235.28 852.02,1237.10 C832.39,1240.61 787.96,1252.47 785.83,1253.04" fill="none" stroke="rgb(16, 53, 78)" stroke-width="14.63" stroke-opacity="1.00" stroke-linejoin="miter"/>
<path d="M745.82,1278.89 C749.04,1278.98 756.74,1281.04 760.22,1282.75 C763.52,1284.41 769.14,1288.99 771.52,1291.48 C774.02,1294.14 778.47,1300.14 780.18,1303.26 C783.58,1309.57 788.40,1323.40 789.67,1331.06 C790.91,1338.73 791.33,1354.03 790.20,1362.56 C789.03,1371.14 785.09,1384.48 781.64,1391.56 C780.15,1394.60 776.45,1400.82 774.16,1403.67 C771.76,1406.63 766.68,1411.58 763.76,1413.79 C760.88,1415.93 753.96,1419.03 750.26,1419.88 C746.18,1420.78 739.74,1420.65 735.70,1419.59 C732.04,1418.59 725.26,1415.21 722.46,1412.96 C719.64,1410.63 714.76,1405.49 712.47,1402.43 C708.73,1397.35 702.33,1382.82 700.61,1376.08 C698.93,1369.33 697.31,1352.14 697.79,1344.94 C698.35,1336.87 701.47,1321.65 704.17,1314.78 C705.54,1311.34 708.63,1305.02 710.50,1301.86 C712.33,1298.81 717.02,1292.99 719.63,1290.44 C722.10,1288.04 727.90,1283.69 731.27,1282.17 C734.82,1280.60 742.60,1278.85 745.82,1278.89 Z" fill="none" stroke="rgb(16, 53, 78)" stroke-width="16.58" stroke-opacity="1.00" stroke-linejoin="round"/>
<path d="M1076.14,1265.23 C1078.95,1265.24 1085.89,1266.67 1089.09,1267.90 C1092.67,1269.32 1097.85,1272.52 1101.06,1275.30 C1103.90,1277.81 1109.41,1284.03 1111.48,1287.07 C1115.04,1292.37 1121.59,1307.83 1123.15,1314.67 C1124.74,1321.80 1126.30,1336.87 1126.02,1343.43 C1125.68,1350.85 1123.21,1365.90 1121.14,1372.11 C1119.87,1375.88 1116.86,1382.99 1115.13,1386.30 C1113.07,1390.18 1109.41,1395.61 1106.54,1398.86 C1103.90,1401.82 1097.85,1407.11 1095.27,1408.73 C1092.67,1410.32 1085.89,1412.96 1082.62,1413.65 C1078.95,1414.39 1073.34,1414.39 1069.67,1413.65 C1066.40,1412.96 1059.62,1410.32 1057.02,1408.73 C1054.43,1407.11 1048.39,1401.82 1045.75,1398.86 C1042.88,1395.61 1039.22,1390.18 1037.16,1386.30 C1033.69,1379.66 1029.08,1365.90 1027.77,1357.96 C1026.61,1350.85 1025.99,1336.87 1026.80,1328.94 C1027.54,1321.80 1030.70,1307.83 1033.90,1300.23 C1035.43,1296.64 1039.22,1289.45 1040.81,1287.07 C1042.88,1284.03 1048.39,1277.81 1051.23,1275.30 C1054.43,1272.52 1059.62,1269.32 1063.20,1267.90 C1066.40,1266.67 1073.34,1265.24 1076.14,1265.23 Z" fill="none" stroke="rgb(16, 53, 78)" stroke-width="16.58" stroke-opacity="1.00" stroke-linejoin="round"/>
<path d="M1007.80,1191.07 C1019.50,1184.62 1051.11,1167.29 1064.12,1162.01 C1073.00,1158.42 1090.38,1153.40 1098.62,1152.30 C1105.01,1151.47 1121.71,1150.80 1126.67,1151.11 C1133.94,1151.61 1140.34,1153.23 1145.18,1155.28 C1145.97,1155.61 1148.71,1156.72 1149.65,1157.11" fill="none" stroke="rgb(16, 53, 78)" stroke-width="11.70" stroke-opacity="1.00" stroke-linejoin="miter"/>
<path d="M757.06,1196.06 C751.77,1194.08 738.27,1189.04 730.07,1185.99 C721.46,1182.89 704.70,1178.25 697.77,1177.47 C693.52,1177.02 687.80,1177.36 683.93,1178.03 C677.19,1179.22 667.04,1182.91 657.11,1188.07 C656.47,1188.41 655.82,1188.74 655.17,1189.07" fill="none" stroke="rgb(16, 53, 78)" stroke-width="11.70" stroke-opacity="1.00" stroke-linejoin="miter"/>
</g>
</svg>
